<svg width="82" height="123" viewBox="0 0 82 123" fill="none" xmlns="http://www.w3.org/2000/svg">
    <path fill-rule="evenodd" clip-rule="evenodd"
        d="M58.8906 0L81.687 23.0625V23.4733V119.156C81.687 121.279 79.986 123 77.8876 123H3.7994C1.70105 123 0 121.279 0 119.156V3.84375C0 1.72091 1.70105 0 3.7994 0H58.4805H58.8906ZM80.7372 23.4733H62.3482C60.2121 23.4733 58.4805 21.7217 58.4805 19.5611V0.960939H3.7994C2.2614 0.960939 1.00799 2.19362 0.951816 3.73568L0.949851 3.84375V119.156C0.949851 120.712 2.16831 121.98 3.69257 122.037L3.7994 122.039H77.8876C79.4256 122.039 80.679 120.806 80.7352 119.264L80.7372 119.156V23.4733Z"
        fill="#FF6259" />
    <path
        d="M40.9008 66.7214C41.1601 66.7214 41.3703 66.9315 41.3703 67.1908C41.3703 67.4501 41.1601 67.6603 40.9008 67.6603H40.4314V66.7214H40.9008Z"
        fill="#FF6259" />
    <path
        d="M44.1871 66.7214C44.7057 66.7214 45.126 67.1417 45.126 67.6603V68.5992C45.126 69.1178 44.7057 69.5382 44.1871 69.5382V66.7214Z"
        fill="#FF6259" />
    <path fill-rule="evenodd" clip-rule="evenodd"
        d="M51.6985 55.4542C51.6985 54.4171 50.8578 53.5763 49.8207 53.5763H34.7978C33.7607 53.5763 32.9199 54.4171 32.9199 55.4542V70.4771C32.9199 71.5142 33.7607 72.3549 34.7978 72.3549H49.8207C50.8578 72.3549 51.6985 71.5142 51.6985 70.4771V55.4542ZM35.7367 62.0267H42.3092V63.9046H35.7367V62.0267ZM35.7367 57.332H48.8818V59.2099H35.7367V57.332ZM42.3092 67.1908C42.3092 66.413 41.6787 65.7824 40.9008 65.7824H39.4924V70.4771H40.4314V68.5992H40.9008C41.6787 68.5992 42.3092 67.9687 42.3092 67.1908ZM49.8207 66.7214V65.7824H47.0039V70.4771H47.9428V68.5992H49.3512V67.6603H47.9428V66.7214H49.8207ZM43.2482 65.7824V70.4771H44.1871C45.2242 70.4771 46.065 69.6363 46.065 68.5992V67.6603C46.065 66.6232 45.2242 65.7824 44.1871 65.7824H43.2482Z"
        fill="#FF6259" />
</svg>